<?xml version="1.0" encoding="utf-8"?>
<!-- Generator: Adobe Illustrator 27.3.1, SVG Export Plug-In . SVG Version: 6.00 Build 0)  -->
<svg version="1.1" id="Layer_1" xmlns="http://www.w3.org/2000/svg" xmlns:xlink="http://www.w3.org/1999/xlink" x="0px" y="0px"
	 viewBox="0 0 1080 1080" style="enable-background:new 0 0 1080 1080;" xml:space="preserve">
<style type="text/css">
	.st0{fill:#AF0000;}
	.st1{fill:#FFB618;}
</style>
<g>
	<g>
		<g>
			<ellipse class="st0" cx="540" cy="540" rx="305.5" ry="139.12"/>
		</g>
		<g>
			<path class="st1" d="M540,684.12c-82.3,0-159.76-14.63-218.09-41.2C262.32,615.79,229.5,579.24,229.5,540
				s32.82-75.79,92.41-102.93c58.34-26.57,135.79-41.2,218.09-41.2s159.76,14.63,218.09,41.2c59.59,27.14,92.41,63.69,92.41,102.93
				s-32.82,75.79-92.41,102.93C699.76,669.49,622.3,684.12,540,684.12z M540,405.88c-80.9,0-156.88,14.31-213.95,40.3
				c-55.81,25.42-86.55,58.74-86.55,93.83c0,35.09,30.74,68.41,86.55,93.83c57.06,25.99,133.05,40.3,213.95,40.3
				s156.88-14.31,213.95-40.3c55.81-25.42,86.55-58.74,86.55-93.83c0-35.09-30.74-68.41-86.55-93.83
				C696.88,420.19,620.9,405.88,540,405.88z"/>
		</g>
	</g>
	<g>
		<g>
			<g>
				<g>
					<polygon class="st0" points="519.61,455.44 520.82,448.33 516.48,444.8 506.27,444.09 502.16,440.13 500.88,434.91 
						506.27,425.82 499.41,428.29 496.14,430.96 492.39,436.68 492.39,443.15 494.96,450.31 505.08,456.51 516.68,458.6 					"/>
				</g>
				<g>
					<polygon class="st0" points="560.74,455.64 559.52,448.53 563.87,445 574.07,444.28 578.18,440.33 579.47,435.1 574.07,426.02 
						580.93,428.49 584.21,431.15 587.96,436.88 587.96,443.35 585.39,450.5 575.27,456.71 563.67,458.8 					"/>
				</g>
				<g>
					<g>
						<path class="st1" d="M588.74,441.2c-0.11-4.52-1.85-8.38-5.29-11.39c-3.39-2.97-7.33-4.56-11.85-4.69
							c-0.26-0.01-0.64-0.13-0.76,0.14c-0.15,0.33,0.25,0.5,0.44,0.71c0.85,0.92,1.74,1.8,2.57,2.75c1.92,2.2,3.49,4.57,3.82,7.6
							c0.29,2.69-0.86,4.8-3.37,5.8c-3.92,1.57-8,2-12.18,1.82c-0.2-0.01-0.41-0.05-0.58-0.13c-2.76-1.45-5.74-2.1-8.81-2.36
							c-1.97-0.17-21.4-0.51-24.84-0.06c-2.95,0.39-5.95,0.57-8.61,2.16c-0.67,0.4-1.46,0.59-2.25,0.5
							c-1.42-0.15-2.85-0.08-4.28-0.25c-2.61-0.3-5.15-0.81-7.53-1.96c-1.48-0.72-2.44-1.83-2.76-3.44c-0.2-0.99-0.18-2,0.02-2.99
							c0.47-2.3,1.64-4.25,3.14-6c1.07-1.26,2.24-2.44,3.35-3.66c0.13-0.14,0.37-0.26,0.27-0.49c-0.1-0.22-0.36-0.11-0.55-0.13
							c-0.07-0.01-0.15,0-0.22,0c-4.62,0.09-8.64,1.74-12.01,4.85c-4.61,4.25-6.22,9.55-4.6,15.58c1.33,4.96,4.41,8.66,9.13,10.89
							c2.07,0.98,4.25,1.56,6.67,1.95c-0.45,0.19-0.74,0.31-1.04,0.43c-1.31,0.52-2.59,1.09-3.84,1.73c-0.4,0.2-0.51,0.42-0.02,0.65
							c2.05,0.93,3.77,2.38,5.54,3.73c1.54,1.17,3.23,1.78,5.17,1.7c0.85-0.04,1.72,0.06,2.56-0.05c1.36-0.18,2.17,0.51,2.83,1.54
							c0.37,0.57,0.69,1.17,0.88,1.83c0.33,1.13,0.65,2.27,0.93,3.41c0.52,2.16,1.43,4.11,2.88,5.81c0.75,0.88,1.46,1.79,2.15,2.72
							c1.62,2.2,2.22,4.53,0.78,7.08c-0.06,0.11-0.09,0.23-0.14,0.35c-0.58,1.36-0.46,1.96,0.58,3.01c0.43,0.44,0.93,0.75,1.51,0.96
							c1.17,0.42,2.21,1.07,3.21,1.79c0.79,0.57,1.59,1.14,2.37,1.73c0.56,0.42,11.45,0.41,11.96,0.04c2.07-1.49,4.13-2.99,6.52-4
							c1.56-0.66,1.87-2,1.2-3.58c-0.38-0.9-0.82-1.77-0.89-2.78c-0.13-2.08,0.75-3.82,2.06-5.26c2.64-2.9,4.43-6.16,5.08-10.05
							c0.21-1.26,0.78-2.43,1.56-3.47c0.54-0.73,1.16-1.2,2.15-1.1c0.77,0.08,1.56-0.02,2.33,0.04c2.38,0.19,4.42-0.55,6.26-2.06
							c1.53-1.25,3.09-2.49,4.92-3.31c0.2-0.09,0.51-0.11,0.51-0.37c0-0.26-0.31-0.3-0.5-0.39c-1.43-0.66-2.86-1.32-4.5-2.07
							c0.54-0.12,0.87-0.19,1.21-0.26c4.35-0.95,8.21-2.76,11.07-6.33C587.44,448.71,588.84,445.19,588.74,441.2z M518.28,453.05
							c-0.39,0.29-0.82,0.46-1.31,0.52c-4.39,0.61-8.64-0.02-12.79-1.49c-1.97-0.7-3.84-1.59-5.66-2.61
							c-0.2-0.11-4.86-2.62-5.39-6.15c-1.3-8.65,3.88-14.68,12.04-16.83c0.02,0.33-0.26,0.46-0.43,0.65
							c-1.35,1.45-2.74,2.85-3.81,4.54c-3.6,5.66-0.15,12.43,5.7,13.83c2.29,0.55,4.62,0.56,6.94,0.72c0.97,0.07,1.95,0.1,2.92,0.19
							c1.51,0.13,2.54,1,2.94,2.4C519.9,450.48,519.43,452.21,518.28,453.05z M549.34,491.05c-1.06,0.41-2.16,0.36-3.26,0.16
							c-0.1-0.02-0.17-0.09-0.18-0.22c0.12-0.22,0.34-0.15,0.53-0.16c0.33-0.02,0.65,0,0.98-0.04c1.26-0.17,1.7-0.69,1.65-1.96
							c-0.01-0.25,0-0.52-0.11-0.74c-0.5-1.02-0.53-1.99,0.19-2.94c0.09-0.12,0.21-0.32,0.04-0.47c-0.15-0.14-0.34-0.03-0.5,0.02
							c-1.13,0.36-2.15,0.95-3.18,1.52c-0.79,0.44-1.57,0.89-2.38,1.28c-2.16,1.04-4.33,0.93-6.44-0.14
							c-1.45-0.73-2.85-1.57-4.29-2.34c-0.39-0.21-0.88-0.6-1.23-0.37c-0.3,0.2,0.1,0.72,0.16,1.1c0.14,0.89-0.03,1.76-0.27,2.6
							c-0.44,1.52,0.46,2.26,1.74,2.45c0.12,0.02,0.26,0,0.37,0.03c0.28,0.08,0.79-0.18,0.78,0.29c-0.01,0.36-0.49,0.21-0.77,0.22
							c-0.78,0.04-1.56-0.02-2.3-0.29c-1.1-0.4-1.6-1.2-1.38-2.32c0.33-1.62,0.88-3.21,1.04-4.84c0.12-1.25,0.7-1.77,1.76-2.13
							c0.76-0.26,1.43-0.36,2.24-0.09c3.66,1.22,7.35,1.24,11,0c1.4-0.48,2.42,0.19,3.53,0.75c0.14,0.07,0.19,0.22,0.2,0.38
							c0.1,1.59,0.69,3.08,1.04,4.61c0.11,0.49,0.18,0.98,0.26,1.48C550.72,489.88,550.27,490.69,549.34,491.05z M558.42,446.51
							c-0.17,0.64-0.53,1.19-0.9,1.73c-0.5,0.73-0.75,1.52-0.72,2.41c0.01,0.15-0.02,0.3,0,0.45c0.49,2.93-1.07,4.91-3.08,6.69
							c-1.62,1.43-3.35,2.71-4.93,4.19c-1.66,1.56-3.02,3.35-4.21,5.28c-0.6,0.97-1.31,1.04-2.06,0.16
							c-0.61-0.72-0.93-1.6-1.15-2.51c-0.35-1.45-0.34-2.93-0.43-4.41c-0.07-1.08-0.18-2.15-0.52-3.18
							c-0.06-0.17-0.07-0.45-0.34-0.43c-0.18,0.02-0.24,0.24-0.31,0.4c-0.51,1.25-0.66,2.57-0.73,3.9c-0.08,1.4-0.12,2.81-0.51,4.17
							c-0.32,1.12-0.94,2.04-1.9,2.72c-0.34,0.24-0.58,0.22-0.78-0.17c-2.06-3.96-5.36-6.77-8.77-9.48
							c-1.06-0.84-1.99-1.83-2.84-2.89c-0.89-1.11-1.17-2.37-1.02-3.74c0.15-1.42,0-2.75-0.9-3.92c-0.24-0.31-0.42-0.68-0.58-1.05
							c-0.44-1.01-0.19-1.53,0.87-1.75c2.06-0.43,29.43-0.11,32.22-0.26c0.96-0.05,1.91,0.06,2.83,0.3
							C558.37,445.3,558.61,445.8,558.42,446.51z M569.28,453.64c-2.12,0.23-4.26,0.23-6.38-0.11c-1.08-0.17-1.81-0.85-2.17-1.87
							c-0.45-1.29-0.38-2.57,0.31-3.77c0.53-0.92,1.35-1.4,2.4-1.47c1.88-0.12,3.75-0.2,5.63-0.31c2.32-0.14,4.6-0.44,6.69-1.52
							c4.06-2.1,6.62-7.87,3.36-12.94c-1.08-1.68-2.49-3.07-3.83-4.53c-0.17-0.18-0.34-0.36-0.5-0.53c0.08-0.16,0.19-0.1,0.27-0.08
							c3.64,1.03,6.78,2.87,9.22,5.79c1.82,2.18,2.62,4.78,2.78,7.57C587.55,448.34,573.61,453.16,569.28,453.64z"/>
					</g>
				</g>
			</g>
			<g>
				<g>
					<g>
						<g>
							<path class="st1" d="M361.83,533.83c5.83,0,10.83,2.08,15,6.25c4.17,4.14,6.25,9.14,6.25,15v21.59
								c0,5.63-2.01,10.46-6.04,14.49c-4.03,4.03-8.87,6.04-14.53,6.04h-21.93v-63.38H361.83z M352.87,546.08v38.87h9.63
								c2.28,0,4.23-0.82,5.83-2.45c1.63-1.63,2.45-3.58,2.45-5.83v-21.59c0-2.48-0.87-4.59-2.62-6.34
								c-1.77-1.77-3.89-2.66-6.34-2.66H352.87z"/>
							<path class="st1" d="M428.16,538.94c4.25,4.28,6.38,9.42,6.38,15.42v22.31c0,6-2.13,11.14-6.38,15.42
								c-4.28,4.28-9.44,6.42-15.46,6.42c-6,0-11.14-2.14-15.42-6.42c-4.28-4.28-6.42-9.42-6.42-15.42v-22.31
								c0-6,2.14-11.14,6.42-15.42c4.28-4.28,9.42-6.42,15.42-6.42C418.73,532.52,423.88,534.66,428.16,538.94z M405.94,547.6
								c-1.89,1.89-2.83,4.14-2.83,6.76v22.31c0,2.62,0.94,4.87,2.83,6.76c1.89,1.89,4.14,2.83,6.76,2.83c2.65,0,4.9-0.94,6.76-2.83
								c1.89-1.86,2.83-4.11,2.83-6.76v-22.31c0-2.62-0.94-4.87-2.83-6.76c-1.86-1.86-4.11-2.79-6.76-2.79
								C410.08,544.82,407.83,545.75,405.94,547.6z"/>
							<path class="st1" d="M484.52,533.83v63.38h-11.87l-17.7-35.28v35.28H442.7v-63.38h11.87l17.66,35.28v-35.28H484.52z"/>
							<path class="st1" d="M523.23,571.65v25.56h-12.25v-63.38h23.36c5.18,0,9.63,1.85,13.35,5.53c3.69,3.72,5.53,8.18,5.53,13.39
								c0,5.18-1.85,9.63-5.53,13.35c-3.69,3.69-8.14,5.54-13.35,5.54H523.23z M523.23,546.08v13.31h11.11
								c1.8,0,3.37-0.66,4.69-1.99c1.3-1.29,1.94-2.84,1.94-4.65c0-1.83-0.65-3.39-1.94-4.69c-1.32-1.32-2.89-1.99-4.69-1.99H523.23
								z"/>
							<path class="st1" d="M592.01,533.83v12.25h-20.32v13.31h15.59v12.25h-15.59v13.31h20.32v12.25h-32.58v-63.38H592.01z"/>
							<path class="st1" d="M620.87,533.83c5.83,0,10.83,2.08,15,6.25c4.17,4.14,6.25,9.14,6.25,15v21.59
								c0,5.63-2.01,10.46-6.04,14.49c-4.03,4.03-8.87,6.04-14.53,6.04h-21.93v-63.38H620.87z M611.91,546.08v38.87h9.63
								c2.28,0,4.23-0.82,5.83-2.45c1.63-1.63,2.45-3.58,2.45-5.83v-21.59c0-2.48-0.87-4.59-2.62-6.34
								c-1.77-1.77-3.89-2.66-6.34-2.66H611.91z"/>
							<path class="st1" d="M661.01,571.65v25.56h-12.25v-63.38h23.36c5.18,0,9.63,1.86,13.35,5.58c3.69,3.69,5.53,8.14,5.53,13.35
								c0,3.97-1.16,7.59-3.46,10.86c-2.28,3.24-5.3,5.53-9.04,6.89l10.98,26.7h-13.27l-10.52-25.56H661.01z M661.01,546.08v13.31
								h11.11c1.8,0,3.35-0.65,4.65-1.94c1.32-1.32,1.99-2.89,1.99-4.69c0-1.83-0.66-3.39-1.99-4.69c-1.3-1.32-2.85-1.99-4.65-1.99
								H661.01z"/>
							<path class="st1" d="M733.09,538.94c4.25,4.28,6.38,9.42,6.38,15.42v22.31c0,6-2.13,11.14-6.38,15.42
								c-4.28,4.28-9.44,6.42-15.46,6.42c-6,0-11.14-2.14-15.42-6.42c-4.28-4.28-6.42-9.42-6.42-15.42v-22.31
								c0-6,2.14-11.14,6.42-15.42c4.28-4.28,9.42-6.42,15.42-6.42C723.65,532.52,728.8,534.66,733.09,538.94z M710.86,547.6
								c-1.89,1.89-2.83,4.14-2.83,6.76v22.31c0,2.62,0.94,4.87,2.83,6.76c1.89,1.89,4.14,2.83,6.76,2.83c2.65,0,4.9-0.94,6.76-2.83
								c1.89-1.86,2.83-4.11,2.83-6.76v-22.31c0-2.62-0.94-4.87-2.83-6.76c-1.86-1.86-4.11-2.79-6.76-2.79
								C715,544.82,712.75,545.75,710.86,547.6z"/>
						</g>
					</g>
					<g>
						<g>
							<path class="st1" d="M401.43,645.46v-25.18h2.95l11.3,19.03h-1.58l11.15-19.03h2.95l0.04,25.18h-3.45l-0.04-19.75h0.83
								l-9.93,16.69h-1.65l-10-16.69h0.9v19.75H401.43z"/>
							<path class="st1" d="M443.77,645.67c-2.04,0-3.83-0.42-5.38-1.26c-1.55-0.84-2.75-1.99-3.6-3.45
								c-0.85-1.46-1.28-3.14-1.28-5.04c0-1.89,0.41-3.57,1.24-5.04c0.83-1.46,1.97-2.61,3.42-3.44c1.45-0.83,3.09-1.24,4.91-1.24
								c1.85,0,3.48,0.41,4.89,1.22c1.42,0.82,2.52,1.96,3.33,3.44c0.8,1.48,1.21,3.2,1.21,5.16c0,0.14-0.01,0.31-0.02,0.5
								c-0.01,0.19-0.03,0.37-0.05,0.54h-16.22v-2.48h14.43l-1.4,0.86c0.02-1.22-0.23-2.31-0.76-3.27
								c-0.53-0.96-1.25-1.71-2.18-2.25s-2-0.81-3.22-0.81c-1.2,0-2.27,0.27-3.2,0.81c-0.94,0.54-1.67,1.29-2.19,2.27
								s-0.79,2.08-0.79,3.33v0.58c0,1.27,0.29,2.4,0.88,3.4c0.59,1,1.41,1.77,2.46,2.32c1.06,0.55,2.27,0.83,3.63,0.83
								c1.13,0,2.15-0.19,3.08-0.58c0.92-0.38,1.73-0.96,2.43-1.73l1.91,2.23c-0.86,1.01-1.94,1.77-3.22,2.3
								C446.78,645.41,445.35,645.67,443.77,645.67z"/>
							<path class="st1" d="M462.33,645.67c-1.42,0-2.66-0.24-3.72-0.72c-1.07-0.48-1.89-1.15-2.46-2c-0.58-0.85-0.86-1.82-0.86-2.9
								c0-1.03,0.25-1.97,0.74-2.81c0.49-0.84,1.29-1.51,2.41-2.01c1.12-0.5,2.62-0.76,4.51-0.76h6.04v2.48h-5.9
								c-1.73,0-2.89,0.29-3.49,0.86c-0.6,0.58-0.9,1.27-0.9,2.09c0,0.94,0.37,1.69,1.12,2.25c0.74,0.56,1.77,0.85,3.09,0.85
								c1.29,0,2.43-0.29,3.4-0.86s1.67-1.41,2.1-2.52l0.68,2.37c-0.46,1.13-1.26,2.02-2.41,2.68
								C465.53,645.34,464.08,645.67,462.33,645.67z M468.59,645.46v-4.03l-0.18-0.76v-6.87c0-1.46-0.43-2.6-1.28-3.4
								c-0.85-0.8-2.13-1.21-3.83-1.21c-1.13,0-2.23,0.19-3.31,0.56c-1.08,0.37-1.99,0.87-2.73,1.49l-1.44-2.59
								c0.98-0.79,2.16-1.4,3.54-1.82c1.38-0.42,2.82-0.63,4.33-0.63c2.61,0,4.63,0.64,6.04,1.91c1.41,1.27,2.12,3.21,2.12,5.83
								v11.51H468.59z"/>
							<path class="st1" d="M475.53,629.23v-2.84h12.16v2.84H475.53z M484.81,645.67c-1.92,0-3.41-0.52-4.46-1.55
								c-1.06-1.03-1.58-2.51-1.58-4.42v-17.48h3.45v17.34c0,1.03,0.26,1.82,0.77,2.37c0.52,0.55,1.25,0.83,2.21,0.83
								c1.08,0,1.98-0.3,2.7-0.9l1.08,2.48c-0.53,0.46-1.16,0.79-1.89,1.01C486.36,645.57,485.6,645.67,484.81,645.67z"/>
							<path class="st1" d="M498.62,645.67c-1.58,0-3.09-0.22-4.51-0.65c-1.43-0.43-2.55-0.96-3.36-1.58l1.44-2.73
								c0.81,0.55,1.82,1.02,3.02,1.4c1.2,0.38,2.42,0.58,3.67,0.58c1.61,0,2.76-0.23,3.47-0.68c0.71-0.46,1.06-1.09,1.06-1.91
								c0-0.6-0.22-1.07-0.65-1.4c-0.43-0.34-1-0.59-1.71-0.76c-0.71-0.17-1.49-0.32-2.36-0.45c-0.86-0.13-1.73-0.3-2.59-0.5
								c-0.86-0.2-1.65-0.49-2.37-0.86c-0.72-0.37-1.29-0.89-1.73-1.55s-0.65-1.54-0.65-2.64c0-1.15,0.32-2.16,0.97-3.02
								s1.56-1.53,2.75-2s2.6-0.7,4.23-0.7c1.25,0,2.51,0.15,3.79,0.45c1.28,0.3,2.33,0.73,3.15,1.28l-1.48,2.73
								c-0.86-0.58-1.76-0.97-2.7-1.19c-0.94-0.22-1.87-0.32-2.81-0.32c-1.51,0-2.64,0.25-3.38,0.74c-0.74,0.49-1.12,1.12-1.12,1.89
								c0,0.65,0.22,1.15,0.67,1.49c0.44,0.35,1.02,0.62,1.73,0.81c0.71,0.19,1.49,0.35,2.36,0.49c0.86,0.13,1.73,0.3,2.59,0.5
								c0.86,0.2,1.65,0.49,2.36,0.85c0.71,0.36,1.28,0.86,1.73,1.51c0.44,0.65,0.67,1.51,0.67,2.59c0,1.15-0.34,2.15-1.01,2.99
								c-0.67,0.84-1.62,1.49-2.84,1.96C501.79,645.44,500.33,645.67,498.62,645.67z"/>
							<path class="st1" d="M528.01,645.75c-1.7,0-3.21-0.28-4.53-0.83c-1.32-0.55-2.36-1.32-3.13-2.3
								c-0.77-0.98-1.15-2.12-1.15-3.42c0-1.13,0.25-2.16,0.76-3.09c0.5-0.94,1.31-1.84,2.41-2.72c1.1-0.88,2.55-1.78,4.35-2.72
								c1.46-0.77,2.61-1.44,3.44-2.01c0.83-0.58,1.42-1.12,1.76-1.64c0.35-0.52,0.52-1.07,0.52-1.67c0-0.81-0.29-1.48-0.86-2
								c-0.58-0.52-1.4-0.77-2.48-0.77c-1.13,0-2.01,0.28-2.64,0.85c-0.64,0.56-0.95,1.3-0.95,2.21c0,0.46,0.08,0.89,0.23,1.31
								c0.16,0.42,0.44,0.89,0.86,1.4c0.42,0.52,1.03,1.17,1.82,1.96l13.31,13.24l-1.94,2.3l-14.14-14.07
								c-0.84-0.84-1.5-1.59-1.98-2.25c-0.48-0.66-0.83-1.3-1.04-1.92s-0.32-1.26-0.32-1.91c0-1.13,0.28-2.12,0.85-2.97
								c0.56-0.85,1.35-1.51,2.37-1.98c1.02-0.47,2.21-0.7,3.58-0.7c1.27,0,2.37,0.21,3.31,0.63c0.94,0.42,1.66,1.02,2.18,1.8
								c0.52,0.78,0.77,1.72,0.77,2.82c0,0.96-0.23,1.85-0.7,2.66c-0.47,0.82-1.22,1.61-2.25,2.37c-1.03,0.77-2.42,1.6-4.17,2.48
								c-1.44,0.74-2.57,1.43-3.38,2.07c-0.82,0.64-1.4,1.27-1.74,1.89c-0.35,0.62-0.52,1.31-0.52,2.05c0,0.79,0.23,1.49,0.7,2.1
								c0.47,0.61,1.13,1.09,1.98,1.42c0.85,0.34,1.84,0.5,2.97,0.5c1.61,0,3.06-0.35,4.35-1.04c1.29-0.7,2.38-1.74,3.26-3.13
								c0.88-1.39,1.52-3.12,1.92-5.18l2.77,0.9c-0.48,2.42-1.3,4.47-2.46,6.15c-1.16,1.68-2.6,2.96-4.3,3.85
								C532.07,645.3,530.15,645.75,528.01,645.75z"/>
							<path class="st1" d="M555.71,645.46v-25.18h2.95l11.3,19.03h-1.58l11.15-19.03h2.95l0.04,25.18h-3.45l-0.04-19.75h0.83
								l-9.93,16.69h-1.65l-10-16.69h0.9v19.75H555.71z"/>
							<path class="st1" d="M595.14,645.67c-1.42,0-2.66-0.24-3.72-0.72c-1.07-0.48-1.89-1.15-2.46-2c-0.58-0.85-0.86-1.82-0.86-2.9
								c0-1.03,0.25-1.97,0.74-2.81c0.49-0.84,1.29-1.51,2.41-2.01c1.12-0.5,2.62-0.76,4.51-0.76h6.04v2.48h-5.9
								c-1.73,0-2.89,0.29-3.49,0.86c-0.6,0.58-0.9,1.27-0.9,2.09c0,0.94,0.37,1.69,1.12,2.25c0.74,0.56,1.77,0.85,3.09,0.85
								c1.29,0,2.43-0.29,3.4-0.86s1.67-1.41,2.1-2.52l0.68,2.37c-0.46,1.13-1.26,2.02-2.41,2.68
								C598.34,645.34,596.89,645.67,595.14,645.67z M601.4,645.46v-4.03l-0.18-0.76v-6.87c0-1.46-0.43-2.6-1.28-3.4
								c-0.85-0.8-2.13-1.21-3.83-1.21c-1.13,0-2.23,0.19-3.31,0.56c-1.08,0.37-1.99,0.87-2.73,1.49l-1.44-2.59
								c0.98-0.79,2.16-1.4,3.54-1.82c1.38-0.42,2.82-0.63,4.33-0.63c2.61,0,4.63,0.64,6.04,1.91c1.41,1.27,2.12,3.21,2.12,5.83
								v11.51H601.4z"/>
							<path class="st1" d="M611.08,645.46v-19.07h3.31v5.18l-0.32-1.29c0.53-1.32,1.42-2.33,2.66-3.02c1.25-0.7,2.78-1.04,4.6-1.04
								v3.35c-0.14-0.02-0.28-0.04-0.41-0.04s-0.26,0-0.38,0c-1.85,0-3.31,0.55-4.39,1.65c-1.08,1.1-1.62,2.7-1.62,4.78v9.5H611.08z
								"/>
							<path class="st1" d="M625.57,645.46v-26.69h3.45v26.69H625.57z M628.38,640.85l0.07-4.42l10.97-10.04h4.17l-8.42,8.27
								l-1.87,1.58L628.38,640.85z M640.14,645.46l-7.48-9.28l2.23-2.77l9.5,12.05H640.14z"/>
							<path class="st1" d="M655.43,645.67c-2.04,0-3.83-0.42-5.38-1.26c-1.55-0.84-2.75-1.99-3.6-3.45
								c-0.85-1.46-1.28-3.14-1.28-5.04c0-1.89,0.41-3.57,1.24-5.04c0.83-1.46,1.97-2.61,3.42-3.44c1.45-0.83,3.09-1.24,4.91-1.24
								c1.85,0,3.48,0.41,4.89,1.22c1.42,0.82,2.52,1.96,3.33,3.44c0.8,1.48,1.21,3.2,1.21,5.16c0,0.14-0.01,0.31-0.02,0.5
								c-0.01,0.19-0.03,0.37-0.05,0.54h-16.22v-2.48h14.43l-1.4,0.86c0.02-1.22-0.23-2.31-0.76-3.27
								c-0.53-0.96-1.25-1.71-2.18-2.25s-2-0.81-3.22-0.81c-1.2,0-2.27,0.27-3.2,0.81c-0.94,0.54-1.67,1.29-2.19,2.27
								s-0.79,2.08-0.79,3.33v0.58c0,1.27,0.29,2.4,0.88,3.4c0.59,1,1.41,1.77,2.46,2.32c1.06,0.55,2.27,0.83,3.63,0.83
								c1.13,0,2.15-0.19,3.08-0.58c0.92-0.38,1.73-0.96,2.43-1.73l1.91,2.23c-0.86,1.01-1.94,1.77-3.22,2.3
								C658.45,645.41,657.02,645.67,655.43,645.67z"/>
							<path class="st1" d="M666.22,629.23v-2.84h12.16v2.84H666.22z M675.51,645.67c-1.92,0-3.41-0.52-4.46-1.55
								c-1.06-1.03-1.58-2.51-1.58-4.42v-17.48h3.45v17.34c0,1.03,0.26,1.82,0.77,2.37c0.52,0.55,1.25,0.83,2.21,0.83
								c1.08,0,1.98-0.3,2.7-0.9l1.08,2.48c-0.53,0.46-1.16,0.79-1.89,1.01C677.06,645.57,676.3,645.67,675.51,645.67z"/>
						</g>
					</g>
				</g>
			</g>
		</g>
	</g>
</g>
</svg>
